<svg id="Layer_1" data-name="Layer 1" xmlns="http://www.w3.org/2000/svg" viewBox="0 0 113.79 122.88"><defs><style>.cls-1{fill:#333;}.cls-2{fill:#FDE751;}</style></defs><title>fact</title><path class="cls-1" d="M71.76,114.38a17.34,17.34,0,0,1-6.26,6.27,16.38,16.38,0,0,1-7.19,2.2,14.84,14.84,0,0,1-7.39-1.44,15.07,15.07,0,0,1-4.38-3.26l25.22-3.77Zm2.4-14.11,0,1.65,0,.57a23.51,23.51,0,0,1,0,3.25l-.5,2.38-30.56,4.54-.53-1.22-1.19-4.88,0-1.42,32.7-4.87Z"/><path class="cls-1" d="M56.19,3.76A3.84,3.84,0,0,1,60.07,0h0l.26,0A3.89,3.89,0,0,1,62.8,1.19a3.86,3.86,0,0,1,1.06,2.69h0a1.27,1.27,0,0,1,0,.2l-.21,8.19h0a2.28,2.28,0,0,1,0,.26,3.81,3.81,0,0,1-3.86,3.52h0l-.27,0A3.83,3.83,0,0,1,56,12.18h0a1.27,1.27,0,0,1,0-.2l.2-8.22ZM14,18.1a3.9,3.9,0,0,1-1.22-2.67,3.83,3.83,0,0,1,3.69-4,3.84,3.84,0,0,1,2.75,1l6.14,5.73a3.86,3.86,0,0,1,1.22,2.67,3.81,3.81,0,0,1-1,2.74,3.88,3.88,0,0,1-2.68,1.23,3.82,3.82,0,0,1-2.74-1L14,18.1Zm-10,42.22A3.86,3.86,0,0,1,0,56.6a3.78,3.78,0,0,1,1-2.75,3.81,3.81,0,0,1,2.68-1.2l8.38-.28a3.83,3.83,0,0,1,4,3.71v.06h0v.14a3.86,3.86,0,0,1-1,2.55A3.81,3.81,0,0,1,12.34,60h-.15l-8.28.28ZM109.6,48.43h.13a3.84,3.84,0,0,1,2.65.85,3.91,3.91,0,0,1,1.4,2.59v0s0,.1,0,.12a3.84,3.84,0,0,1-3.44,4L102,57a3.84,3.84,0,0,1-4.21-3.42,3.84,3.84,0,0,1,3.43-4.21c2.78-.3,5.58-.62,8.37-.89ZM93.08,15.05A3.81,3.81,0,0,1,98.39,14h0A3.78,3.78,0,0,1,100,16.44a3.88,3.88,0,0,1-.57,2.88l-4.67,7A3.84,3.84,0,0,1,88.4,22l4.68-7Z"/><path class="cls-1" d="M33.31,85.15C31.89,83.53,30.44,81.88,29,80a41,41,0,0,1-4.14-6.92h0a41.19,41.19,0,0,1-2.8-8,35.59,35.59,0,0,1-.95-8.42v0a35.78,35.78,0,0,1,1.17-8.73,42,42,0,0,1,3.41-8.82,2.59,2.59,0,0,1,.19-.33A35.29,35.29,0,0,1,33,30.09a33.64,33.64,0,0,1,9.43-5.81l.3-.11a34.93,34.93,0,0,1,8-2.13,37.61,37.61,0,0,1,8.75-.2,38.75,38.75,0,0,1,8.37,1.71A38.08,38.08,0,0,1,75.64,27,34.12,34.12,0,0,1,90,43.34a37.16,37.16,0,0,1,1.85,5.93,34.34,34.34,0,0,1,.82,6.61,35,35,0,0,1-.58,7.4,38.35,38.35,0,0,1-2.16,7.3,2.72,2.72,0,0,1-.11.25c-2,5-5.58,9.84-9,14.63-1.74,2.41-3.46,4.8-4.92,7.12a4.71,4.71,0,0,1-4.33,2.18L44.05,98.84a4.69,4.69,0,0,1-5.21-3.42,39.19,39.19,0,0,0-2.53-5.79,24.22,24.22,0,0,0-3-4.48Z"/><path class="cls-2" d="M36.83,82.06a45.35,45.35,0,0,1-7.7-11,33.3,33.3,0,0,1-3.32-14.43,33.81,33.81,0,0,1,4.06-15.42l.06-.1h0A29.3,29.3,0,0,1,44.21,28.63,31.73,31.73,0,0,1,59.07,26.5a34.18,34.18,0,0,1,14.18,4.57,29.35,29.35,0,0,1,12.39,14A31.11,31.11,0,0,1,88,56a31.42,31.42,0,0,1-2.41,12.8c-2.81,7-9.38,14.42-13.68,21.27a1.93,1.93,0,0,0-.72,0l-27.8,4.13a37.18,37.18,0,0,0-6.54-12.13Z"/><path class="cls-1" d="M44.56,59.09a11,11,0,0,1,3.9,2.32,26.81,26.81,0,0,1,2.6,2.52,103.46,103.46,0,0,1,8.12-11.31,73.6,73.6,0,0,1,8.64-9l.69-.27h7.74l-1.56,1.74A135.59,135.59,0,0,0,62.93,60.24,167,167,0,0,0,51.39,79,48.45,48.45,0,0,0,44.52,68.1a33.24,33.24,0,0,0-7.63-7l7.67-2Z"/></svg>
